# xmcd CD database file
#
# Track frame offsets:
#	150
#	18326
#	35277
#	54453
#	77639
#	93475
#	111765
#	131001
#	146151
#	162462
#	177642
#	195280
#	215561
#	237695
#	257864
#	276379
#	291636
#	309422
#	333334
#
# Disc length: 4739 seconds
#
# Revision: 4
# Processed by: cddbd v1.5.2PL0 Copyright (c) Steve Scherf et al.
# Submitted via: CDex 1.70beta2
#
DISCID=27128113
DTITLE=Lifetime  - A Retrospective Of Soul, Blues, and Gospel -1956-1999 - CD3
DYEAR=2000
DGENRE=Soul
TTITLE0=Standing In For Jody (Newsome-Barker) (1971)
TTITLE1=Doing My Own Thing [Part 1] (Snyder) (1972)
TTITLE2=Stop Doggin' Me (Crutcher-Davis-Snyder) (1972)
TTITLE3=I Believe In You (You Believe In Me) (Don Davis) (1972)
TTITLE4=Cheaper To Keep Her (Mack Rice) (1972)
TTITLE5=We're Getting Careless With Our Love (Davis-Johnson) (1972)
TTITLE6=Starting All Over Again (Phillip Mitchell) (1972)
TTITLE7=I've Been Born Again (Davis-Dean) (1973)
TTITLE8=It's September (Dennis Gilmore) (1974)
TTITLE9=Try Me Tonight (Don Davis) (1974)
TTITLE10=Free (Davis-Thomas) (1974)
TTITLE11=Disco Lady (Davis-Scales-Vance) (1975)
TTITLE12=Running Out Of Lies (Perry Jordan) (1976)
TTITLE13=God Is Standing By (Taylor) (1977)
TTITLE14=Play Something Pretty (Jackson-Shaw) (1979)
TTITLE15=Lady, My Whole World Is You (Paul Kelly) (1984)
TTITLE16=Lover Boy (Chuck Robertson) (1988)
TTITLE17=Last Two Dollars (George Jackson)
TTITLE18=Soul Heaven (Richard Cason) (1999)
EXTD=Label: Fantasy Inc. - Stax Records\n3SCD-4432-2 YEAR: 2000
EXTT0=
EXTT1=
EXTT2=
EXTT3=
EXTT4=
EXTT5=
EXTT6=
EXTT7=
EXTT8=
EXTT9=
EXTT10=
EXTT11=
EXTT12=
EXTT13=
EXTT14=
EXTT15=
EXTT16=
EXTT17=
EXTT18=
PLAYORDER=
